<svg xmlns="http://www.w3.org/2000/svg" width="65" height="53.764" viewBox="0 0 65 53.764">
    <g data-name="Group 410">
        <path d="M48.104 11.012a7.076 7.076 0 0 0 .784-7.207A13.079 13.079 0 0 0 46.936.391a1.074 1.074 0 0 0-1.514-.136 1.075 1.075 0 0 0-.137 1.514c.053.064 3.736 4.59 1.127 7.916-3.758 4.791.249 11.109.421 11.375a1.074 1.074 0 0 0 1.486.319 1.073 1.073 0 0 0 .319-1.486c-.033-.056-3.342-5.306-.534-8.881z" data-name="Path 4155"/>
        <path d="M55.319 11.012a7.076 7.076 0 0 0 .784-7.207A13.053 13.053 0 0 0 54.15.391a1.075 1.075 0 0 0-1.515-.123 1.077 1.077 0 0 0-.135 1.5c.038.045 3.741 4.583 1.127 7.916-3.759 4.791.249 11.109.421 11.375a1.074 1.074 0 0 0 1.486.319 1.073 1.073 0 0 0 .319-1.486c-.032-.055-3.342-5.305-.534-8.88z" data-name="Path 4156"/>
        <path d="M10.182 11.506a7.08 7.08 0 0 0 .785-7.208A13.064 13.064 0 0 0 9.014.885 1.074 1.074 0 0 0 7.499.762a1.075 1.075 0 0 0-.135 1.5c.038.046 3.741 4.584 1.127 7.917-3.758 4.79.248 11.108.421 11.375a1.075 1.075 0 0 0 1.486.319 1.077 1.077 0 0 0 .319-1.487c-.033-.051-3.343-5.302-.535-8.88z" data-name="Path 4157"/>
        <path d="M17.398 11.506a7.078 7.078 0 0 0 .784-7.208A13.09 13.09 0 0 0 16.23.885a1.074 1.074 0 0 0-1.515-.123 1.075 1.075 0 0 0-.136 1.5c.038.046 3.742 4.584 1.127 7.917-3.758 4.79.248 11.108.421 11.375a1.075 1.075 0 0 0 1.475.367 1.074 1.074 0 0 0 .367-1.475l-.038-.06c-.032-.051-3.342-5.302-.533-8.88z" data-name="Path 4158"/>
        <path d="M61.429 45.281h-2.28a26.665 26.665 0 0 0-24.282-25.447v-1.1a4.5 4.5 0 0 0 1.537-6.171 4.5 4.5 0 0 0-3.858-2.18h-.1a4.5 4.5 0 0 0-4.5 4.491 4.5 4.5 0 0 0 2.18 3.86v1.1A26.664 26.664 0 0 0 5.844 45.281h-2.28a3.572 3.572 0 0 0-3.567 3.568v1.344a3.574 3.574 0 0 0 3.567 3.571h57.865a3.574 3.574 0 0 0 3.568-3.571v-1.344a3.574 3.574 0 0 0-3.568-3.568zM30.097 14.889a2.353 2.353 0 0 1 2.351-2.351h.1a2.347 2.347 0 0 1 2.351 2.343 2.349 2.349 0 0 1-1.5 2.192 1.073 1.073 0 0 0-.682 1v1.661h-.441v-1.661a1.073 1.073 0 0 0-.682-1 2.337 2.337 0 0 1-1.494-2.184zm31.332 36.723H3.564a1.422 1.422 0 0 1-1.419-1.421v-1.344a1.422 1.422 0 0 1 1.419-1.418H43.96a1.075 1.075 0 0 0 1.075-1.075 1.075 1.075 0 0 0-1.075-1.075H7.997a24.5 24.5 0 0 1 24.351-23.4h.3a24.5 24.5 0 0 1 24.351 23.4h-6.081a1.075 1.075 0 0 0-1.075 1.075 1.075 1.075 0 0 0 1.075 1.075H61.431a1.419 1.419 0 0 1 1.418 1.418v1.344a1.422 1.422 0 0 1-1.42 1.421z" data-name="Path 4159"/>
    </g>
</svg>
