<svg xmlns="http://www.w3.org/2000/svg" width="16" height="16" viewBox="0 0 16 16">
    <defs>
        <style>
            .cls-1{opacity:.8}.cls-2{fill:#fff}
        </style>
    </defs>
    <g id="time_43_" class="cls-1" data-name="time (43)">
        <g id="Group_363" data-name="Group 363">
            <path id="Path_4085" d="M8 0a8 8 0 1 0 8 8 8.009 8.009 0 0 0-8-8zm0 14.3A6.3 6.3 0 1 1 14.3 8 6.3 6.3 0 0 1 8 14.3z" class="cls-2" data-name="Path 4085"/>
            <path id="Path_4086" d="M49.169 22h-3.735v-4.49a.684.684 0 0 0-1.368 0v5.174a.684.684 0 0 0 .684.684h4.419a.684.684 0 0 0 0-1.368z" class="cls-2" data-name="Path 4086" transform="translate(-37.438 -13.543)"/>
        </g>
    </g>
</svg>
