<svg xmlns="http://www.w3.org/2000/svg" width="14" height="14" viewBox="0 0 14 14">
    <defs>
        <style>
            .cls-1{opacity:.8}.cls-2{fill:#292929}
        </style>
    </defs>
    <g id="time_43_" class="cls-1" data-name="time (43)">
        <g id="Group_363" data-name="Group 363">
            <path id="Path_4085" d="M7 0a7 7 0 1 0 7 7 7.008 7.008 0 0 0-7-7zm0 12.511A5.511 5.511 0 1 1 12.511 7 5.517 5.517 0 0 1 7 12.511z" class="cls-2" data-name="Path 4085"/>
            <path id="Path_4086" d="M47.869 20.686h-2.783V17.34a.51.51 0 1 0-1.02 0v3.86a.51.51 0 0 0 .51.51h3.293a.51.51 0 0 0 0-1.02z" class="cls-2" data-name="Path 4086" transform="translate(-37.897 -13.528)"/>
        </g>
    </g>
</svg>
